<svg xmlns="http://www.w3.org/2000/svg" viewBox="0 0 768 768" role="img" aria-label="ByeSiudos"><defs><linearGradient id="g" x1="0" y1="0" x2="0" y2="1"><stop offset="0" stop-color="#16a34a"/><stop offset="1" stop-color="#10b981"/></linearGradient></defs><rect width="768" height="768" rx="128" fill="#f9fafb"/><g transform="translate(96,64)"><rect x="160" y="64" width="256" height="384" rx="48" fill="#16a34a" opacity="0.08"/><rect x="192" y="96" width="192" height="320" rx="32" fill="url(#g)"/><rect x="256" y="48" width="64" height="32" rx="6" fill="#10b981"/><circle cx="288" cy="256" r="40" fill="#f1f5f9"/><path d="M288 208v96M240 256h96" stroke="#22c55e" stroke-width="16" stroke-linecap="round"/></g><g transform="translate(120,432)"><path d="M0 112c24-32 40-48 64-48h160c16 0 28-6 36-20l56-96c8-12 28-4 24 10l-120 184c-12 20-32 30-56 30H64c-16 0-30-8-38-22L0 112z" fill="#0ea5a4"/></g><text x="384" y="704" text-anchor="middle" font-family="Inter, Segoe UI, system-ui, -apple-system, sans-serif" font-size="72" fill="#111827">ByeSiudos</text></svg>